<svg width="1440" height="667" viewBox="0 0 1440 667" fill="none" xmlns="http://www.w3.org/2000/svg">
<rect y="190" width="1440" height="345" fill="#232323"/>
<path d="M1434.22 1.97635C1430.98 3.10569 1426.76 4.3762 1424.5 2.82335C1420.28 -0.282335 1419.29 4.94086 1416.89 5.2232C1409.99 6.21137 1413.94 14.5403 1403.37 18.0695C1403.09 18.2106 1402.67 18.493 1402.52 18.7753C1397.31 40.9386 1361.24 17.7871 1355.61 24.7043C1354.9 25.4102 1351.95 24.5632 1346.31 23.7162C1346.31 37.4094 1331.8 30.351 1325.6 28.2335C1324.47 27.9512 1321.51 28.7982 1319.82 28.7982C1309.26 28.5159 1306.3 31.198 1302.64 26.5395C1298.69 21.4575 1295.03 25.4102 1292.07 23.0103C1287 18.7753 1285.31 20.4693 1283.33 25.4102C1281.36 30.7745 1279.11 27.6688 1274.46 30.6334C1268.96 34.1626 1263.47 29.3629 1260.79 27.6688C1240.5 41.0798 1231.35 33.8802 1227.26 35.1507C1226.28 40.0916 1221.63 43.9031 1216.7 43.9031C1216.7 43.9031 1206.13 44.0443 1205.71 43.9031C1199.51 42.2091 1201.34 44.8913 1199.08 45.0325C1195.28 45.3148 1197.25 47.5735 1193.59 48.5617C1183.45 51.2438 1181.33 46.0206 1177.25 46.303C1173.02 46.5853 1168.93 45.1736 1164.85 46.7265C1163.72 47.2911 1148.51 48.7028 1139.77 47.7147C1138.93 49.2675 1137.94 50.6792 1136.11 50.8203C1131.46 51.1027 1126.81 50.9615 1122.3 49.5498C1118.5 48.4205 1120.89 50.9615 1113.99 50.538C1110.47 50.2557 1109.76 51.5262 1104.27 52.7967C1098.21 54.2084 1099.76 58.4434 1095.67 58.3022C1087.08 58.0199 1066.37 61.6902 1059.89 56.3259C1055.52 52.9379 1051.86 56.0435 1049.46 52.7967C1047.91 50.8203 1045.1 52.7967 1042.7 51.9497C1038.61 50.538 1039.32 54.773 1032.27 52.7967C1030.16 52.0908 1028.05 50.8203 1025.79 50.538C1023.82 50.1145 1022.69 49.1263 1021.29 48.1381C1015.51 44.1855 1004.24 45.0325 1001.98 40.0916C993.954 40.3739 1002.13 42.7738 989.445 42.068C970.144 41.0798 969.44 49.2675 964.086 50.1145C963.663 50.1145 962.818 49.691 962.536 49.9733C960.986 50.9615 959.718 50.1145 958.309 49.5498C953.66 47.4323 953.378 52.232 946.193 47.997C944.784 47.0088 938.585 45.0325 937.317 46.1618C935.909 47.5735 935.063 46.8676 927.878 44.1855C926.046 47.15 918.016 47.5735 917.03 43.0561C911.817 43.3385 909.985 45.8795 906.322 42.915C905.618 42.3503 903.364 42.7738 902.659 42.3503C899.982 40.9386 893.643 42.0679 893.22 42.6326C891.529 44.609 889.839 43.762 884.908 43.3385C883.217 49.8322 875.891 41.7856 872.651 43.3385C872.228 43.6208 871.523 43.1973 870.96 43.0561C864.62 40.6563 864.056 46.4441 861.239 46.8676C859.689 47.15 858.28 47.8558 856.589 47.15C854.899 46.4441 853.631 48.4205 851.94 48.4205C848.418 48.4205 846.586 48.5617 845.178 47.4323C845.178 47.4323 843.064 47.2911 841.937 46.4441C840.81 45.5971 839.965 44.4678 839.12 43.4796L838.979 43.762C831.23 40.5151 836.02 41.6444 826.722 46.5853C818.832 50.8203 822.213 46.8676 811.788 51.2438C806.997 53.3614 807.42 50.6792 804.18 52.232C801.221 53.5025 799.671 52.7967 794.318 50.538C790.936 49.1263 786.851 58.3022 780.37 58.161C773.889 58.0199 781.497 62.9608 763.182 58.0199C759.66 57.0317 757.546 61.9726 753.461 57.0317C750.22 53.2202 748.952 58.0199 744.444 55.1965C744.021 54.9142 743.176 54.9142 742.612 55.0554C740.076 55.4789 732.328 58.1611 728.946 57.314C720.916 55.3377 713.167 53.3614 712.463 53.079C710.913 52.6555 707.532 53.079 705.982 52.3732C702.601 50.9615 702.741 53.3614 690.907 54.4907C686.539 54.9142 682.454 55.4789 678.509 57.0317C675.269 58.3022 672.451 60.2786 668.647 60.2786C668.647 60.2786 666.534 61.9726 662.307 62.3961C632.58 65.5018 646.105 61.1256 621.45 64.0901C612.151 65.0783 605.389 67.337 601.726 66.2076C599.331 65.3606 598.767 65.7841 588.483 66.2076C585.665 66.3488 571.999 63.9489 562.278 65.6429C557.769 66.3488 549.034 66.0664 548.612 66.0664C541.99 67.337 542.131 65.6429 540.299 65.6429C519.73 64.9371 532.128 62.2549 518.603 63.6666C514.658 64.0901 514.658 62.2549 509.445 61.8314C499.583 60.8432 498.597 60.8432 495.638 62.6784C494.511 63.5254 489.721 67.0546 485.635 67.1958C476.619 67.7604 475.773 67.3369 474.787 66.3488C473.097 64.3724 471.124 65.3606 469.293 65.0783C447.596 62.1137 450.555 66.4899 416.178 57.0317C410.402 60.1374 408.711 57.8787 397.863 56.1847C380.393 53.3614 402.794 54.0672 372.504 53.5025C367.009 53.3614 368.7 54.4907 360.106 53.2202C344.749 50.8203 342.495 53.926 338.691 54.773C335.732 55.4789 332.633 56.0435 329.956 57.5964C329.533 57.8787 328.547 58.1611 327.843 58.0199C322.63 56.6082 300.792 64.2313 290.085 62.1137C289.381 61.9726 288.254 61.9726 287.69 62.2549C285.295 63.3843 281.068 62.6784 279.8 62.9608C274.588 64.6548 271.488 62.1137 267.825 62.3961C267.402 62.5372 254.159 64.0901 252.891 64.3724C247.397 65.7841 244.297 64.5136 240.775 65.3606C227.391 68.8898 240.634 61.1256 220.065 70.4426C219.36 73.1248 217.529 74.113 214.429 72.9837C210.625 71.572 208.512 75.3835 203.017 74.2542C203.017 74.2542 197.382 75.5247 194.001 75.2423C189.633 74.8188 185.97 76.5128 183.293 76.0893C178.503 75.3835 176.672 77.3598 173.995 75.6658C170.191 73.5483 157.652 75.807 156.243 75.9482C150.326 76.3717 149.34 79.7597 147.085 80.4655C143.986 81.3125 138.35 82.5831 135.251 81.5949C127.361 79.0539 124.966 80.7479 120.599 81.1714C85.6589 84.1359 94.1121 87.5239 79.3191 85.8299C77.0649 85.5476 74.6698 85.9711 72.5565 84.9829C72.5565 84.9829 72.2747 84.9829 72.1339 84.9829C68.8935 85.8299 67.4846 83.5712 63.6807 84.2771C63.1171 84.4182 62.2718 84.2771 61.5674 84.1359C58.0452 83.4301 54.6639 82.4419 51.0009 83.0066C46.0699 83.5712 45.0837 83.5712 43.9566 84.8417C39.73 89.0768 36.7714 85.6887 30.5724 90.2061C25.9231 93.5941 9.72117 98.2527 3.66305 96.841C3.38128 96.6998 2.95862 96.6998 2.67684 96.6998C1.69064 96.841 0.845318 97.1233 0 97.2645V252.831C5.63546 253.537 67.2028 251.984 95.9436 249.02C100.452 248.455 98.9023 250.149 103.833 250.714C110.878 251.702 151.03 244.926 156.102 246.479C162.583 248.455 175.122 248.031 182.589 244.926C185.829 243.655 186.252 245.208 188.224 244.643C191.887 243.796 194.846 241.255 199.072 242.102L199.354 241.961C202.172 240.55 224.996 239.844 231.617 235.326C233.167 234.197 253.032 231.797 255.145 231.656C273.179 229.68 268.53 227.703 282.336 227.139C286.704 226.997 287.831 231.515 295.016 231.797C295.439 231.797 296.002 231.938 296.284 232.221C298.257 234.197 301.074 233.915 303.751 233.774C313.754 233.35 317.135 234.056 321.785 232.785C327.42 231.091 330.66 232.644 333.337 232.362C344.89 231.091 353.625 236.597 357.429 235.185C361.655 233.632 365.741 235.044 369.827 234.479C379.407 238.291 406.739 230.103 414.347 231.091C443.37 234.479 438.861 229.256 449.991 229.821C455.768 230.103 463.939 231.797 467.884 231.374C470.702 231.091 475.492 232.362 475.492 232.362L494.652 232.644C498.315 232.644 497.047 234.621 501.697 234.056C512.545 232.785 515.785 236.032 521.843 234.762C523.252 234.338 524.802 234.197 526.352 235.044C527.901 235.75 531.987 234.903 533.537 235.468C537.059 237.02 540.299 235.044 545.371 235.044C569.463 234.621 558.755 236.032 568.899 237.303C592.709 240.55 654.136 235.185 660.194 235.891C661.603 236.032 674.001 238.009 676.114 238.15C679.495 238.291 688.794 238.291 689.921 238.573C700.065 240.55 706.968 235.468 716.407 237.444C719.084 238.009 722.043 236.879 724.861 237.303C725.424 237.444 736.272 241.538 736.272 240.126C744.867 239.138 738.527 235.75 748.53 235.326C753.038 235.044 750.925 232.08 754.588 231.938C762.9 231.374 759.66 229.68 767.408 230.668C775.298 231.797 776.143 227.986 787.978 232.503C807.279 220.927 811.647 229.539 819.818 221.633C821.931 219.657 825.172 220.504 827.285 219.233C829.117 218.104 836.865 215.422 839.965 215.563C841.092 212.316 840.106 212.881 849.122 212.598C869.551 211.751 852.504 208.222 886.316 208.646C894.206 208.646 895.192 211.469 898.292 208.928C909.563 199.187 916.043 207.658 932.95 199.752C937.176 197.776 939.853 198.905 941.967 196.364C942.953 195.094 948.588 195.799 951.547 197.352C958.309 201.023 961.972 192.694 981.978 207.516C985.782 210.34 988.882 205.54 997.335 207.94C1006.07 210.481 1003.53 211.469 1006.35 212.74C1007.76 213.445 1012.97 216.128 1016.5 216.269C1023.54 216.551 1030.3 219.939 1035.37 219.374C1043.4 218.527 1043.26 221.21 1047.49 219.939C1049.32 219.374 1051.44 218.951 1052.99 220.08C1054.68 221.351 1057.07 221.351 1058.34 223.468C1058.62 223.751 1069.19 224.033 1069.75 224.033C1114.27 226.15 1094.12 219.657 1133.29 223.045C1135.54 223.186 1139.77 221.351 1142.31 223.892C1147.1 228.833 1170.63 226.009 1171.89 225.586C1174.29 225.021 1176.4 225.021 1178.09 226.998C1182.74 223.892 1186.12 228.833 1191.34 224.315C1193.87 222.198 1199.23 223.892 1200.63 224.456C1214.16 229.821 1200.77 227.421 1220.22 228.974C1220.22 228.974 1224.02 230.95 1225.99 231.374C1230.36 232.221 1236.7 233.491 1239.66 231.233C1240.93 230.244 1246.14 229.68 1248.82 225.868C1249.8 224.174 1253.18 224.88 1254.59 224.88C1273.47 225.162 1280.09 218.386 1284.32 218.104C1289.96 217.539 1292.91 217.398 1293.62 216.692C1296.86 212.881 1300.52 217.116 1308.41 217.822C1312.36 218.245 1319.68 218.527 1319.68 218.527C1324.76 219.657 1325.46 215.563 1331.24 217.257C1332.64 217.68 1333.21 217.257 1342.65 216.833C1343.49 216.692 1346.73 217.68 1347.72 217.822C1350.82 218.245 1354.06 218.104 1356.6 220.504C1358.43 222.198 1371.39 218.951 1373.5 217.963C1380.55 214.716 1384.91 217.68 1389.56 214.857C1394.49 211.893 1394.49 214.292 1397.88 211.893C1405.91 206.105 1411.68 209.069 1426.47 204.552C1431.83 202.999 1436.34 202.576 1440 202.717V0C1438.87 0.282335 1437.04 0.847008 1434.22 1.97635Z" fill="#232323"/>
<path d="M1434.22 415.976C1430.98 417.106 1426.76 418.376 1424.5 416.823C1420.28 413.718 1419.29 418.941 1416.89 419.223C1409.99 420.211 1413.94 428.54 1403.37 432.069C1403.09 432.211 1402.67 432.493 1402.52 432.775C1397.31 454.939 1361.24 431.787 1355.61 438.704C1354.9 439.41 1351.95 438.563 1346.31 437.716C1346.31 451.409 1331.8 444.351 1325.6 442.234C1324.47 441.951 1321.51 442.798 1319.82 442.798C1309.26 442.516 1306.3 445.198 1302.64 440.54C1298.69 435.457 1295.03 439.41 1292.07 437.01C1287 432.775 1285.31 434.469 1283.33 439.41C1281.36 444.775 1279.11 441.669 1274.46 444.633C1268.96 448.163 1263.47 443.363 1260.79 441.669C1240.5 455.08 1231.35 447.88 1227.26 449.151C1226.28 454.092 1221.63 457.903 1216.7 457.903C1216.7 457.903 1206.13 458.044 1205.71 457.903C1199.51 456.209 1201.34 458.891 1199.08 459.032C1195.28 459.315 1197.25 461.573 1193.59 462.562C1183.45 465.244 1181.33 460.021 1177.25 460.303C1173.02 460.585 1168.93 459.174 1164.85 460.726C1163.72 461.291 1148.51 462.703 1139.77 461.715C1138.93 463.267 1137.94 464.679 1136.11 464.82C1131.46 465.103 1126.81 464.962 1122.3 463.55C1118.5 462.42 1120.89 464.962 1113.99 464.538C1110.47 464.256 1109.76 465.526 1104.27 466.797C1098.21 468.208 1099.76 472.443 1095.67 472.302C1087.08 472.02 1066.37 475.69 1059.89 470.326C1055.52 466.938 1051.86 470.044 1049.46 466.797C1047.91 464.82 1045.1 466.797 1042.7 465.95C1038.61 464.538 1039.32 468.773 1032.27 466.797C1030.16 466.091 1028.05 464.82 1025.79 464.538C1023.82 464.115 1022.69 463.126 1021.29 462.138C1015.51 458.185 1004.24 459.032 1001.98 454.092C993.954 454.374 1002.13 456.774 989.445 456.068C970.144 455.08 969.44 463.267 964.086 464.114C963.663 464.114 962.818 463.691 962.536 463.973C960.986 464.962 959.718 464.114 958.309 463.55C953.66 461.432 953.378 466.232 946.193 461.997C944.784 461.009 938.585 459.032 937.317 460.162C935.909 461.573 935.063 460.868 927.878 458.185C926.046 461.15 918.016 461.573 917.03 457.056C911.817 457.338 909.985 459.879 906.322 456.915C905.618 456.35 903.364 456.774 902.659 456.35C899.982 454.939 893.643 456.068 893.22 456.633C891.529 458.609 889.839 457.762 884.908 457.338C883.217 463.832 875.891 455.786 872.651 457.338C872.228 457.621 871.523 457.197 870.96 457.056C864.62 454.656 864.056 460.444 861.239 460.868C859.689 461.15 858.28 461.856 856.589 461.15C854.899 460.444 853.631 462.42 851.94 462.42C848.418 462.42 846.586 462.562 845.178 461.432C845.178 461.432 843.064 461.291 841.937 460.444C840.81 459.597 839.965 458.468 839.12 457.48L838.979 457.762C831.23 454.515 836.02 455.644 826.722 460.585C818.832 464.82 822.213 460.868 811.788 465.244C806.997 467.361 807.42 464.679 804.18 466.232C801.221 467.503 799.671 466.797 794.318 464.538C790.936 463.126 786.851 472.302 780.37 472.161C773.889 472.02 781.497 476.961 763.182 472.02C759.66 471.032 757.546 475.973 753.461 471.032C750.22 467.22 748.952 472.02 744.444 469.197C744.021 468.914 743.176 468.914 742.612 469.055C740.076 469.479 732.328 472.161 728.946 471.314C720.916 469.338 713.167 467.361 712.463 467.079C710.913 466.656 707.532 467.079 705.982 466.373C702.601 464.962 702.741 467.361 690.907 468.491C686.539 468.914 682.454 469.479 678.509 471.032C675.269 472.302 672.451 474.279 668.647 474.279C668.647 474.279 666.534 475.973 662.307 476.396C632.58 479.502 646.105 475.126 621.45 478.09C612.151 479.078 605.389 481.337 601.726 480.208C599.331 479.361 598.767 479.784 588.483 480.208C585.665 480.349 571.999 477.949 562.278 479.643C557.769 480.349 549.034 480.066 548.612 480.066C541.99 481.337 542.131 479.643 540.299 479.643C519.73 478.937 532.128 476.255 518.603 477.667C514.658 478.09 514.658 476.255 509.445 475.831C499.583 474.843 498.597 474.843 495.638 476.678C494.511 477.525 489.721 481.055 485.635 481.196C476.619 481.76 475.773 481.337 474.787 480.349C473.097 478.372 471.124 479.361 469.293 479.078C447.596 476.114 450.555 480.49 416.178 471.032C410.402 474.137 408.711 471.879 397.863 470.185C380.393 467.361 402.794 468.067 372.504 467.503C367.009 467.361 368.7 468.491 360.106 467.22C344.749 464.82 342.495 467.926 338.691 468.773C335.732 469.479 332.633 470.044 329.956 471.596C329.533 471.879 328.547 472.161 327.843 472.02C322.63 470.608 300.792 478.231 290.085 476.114C289.381 475.973 288.254 475.973 287.69 476.255C285.295 477.384 281.068 476.678 279.8 476.961C274.588 478.655 271.488 476.114 267.825 476.396C267.402 476.537 254.159 478.09 252.891 478.372C247.397 479.784 244.297 478.514 240.775 479.361C227.391 482.89 240.634 475.126 220.065 484.443C219.36 487.125 217.529 488.113 214.429 486.984C210.625 485.572 208.512 489.383 203.017 488.254C203.017 488.254 197.382 489.525 194.001 489.242C189.633 488.819 185.97 490.513 183.293 490.089C178.503 489.384 176.672 491.36 173.995 489.666C170.191 487.548 157.652 489.807 156.243 489.948C150.326 490.372 149.34 493.76 147.085 494.466C143.986 495.313 138.35 496.583 135.251 495.595C127.361 493.054 124.966 494.748 120.599 495.171C85.6589 498.136 94.1121 501.524 79.3191 499.83C77.0649 499.548 74.6698 499.971 72.5565 498.983C72.5565 498.983 72.2747 498.983 72.1339 498.983C68.8935 499.83 67.4846 497.571 63.6807 498.277C63.1171 498.418 62.2718 498.277 61.5674 498.136C58.0452 497.43 54.6639 496.442 51.0009 497.007C46.0699 497.571 45.0837 497.571 43.9566 498.842C39.73 503.077 36.7714 499.689 30.5724 504.206C25.9231 507.594 9.72117 512.253 3.66305 510.841C3.38128 510.7 2.95862 510.7 2.67684 510.7C1.69064 510.841 0.845318 511.123 0 511.264V666.831C5.63546 667.537 67.2028 665.984 95.9436 663.02C100.452 662.455 98.9023 664.149 103.833 664.714C110.878 665.702 151.03 658.926 156.102 660.479C162.583 662.455 175.122 662.031 182.589 658.926C185.829 657.655 186.252 659.208 188.224 658.643C191.887 657.796 194.846 655.255 199.072 656.102L199.354 655.961C202.172 654.55 224.996 653.844 231.617 649.326C233.167 648.197 253.032 645.797 255.145 645.656C273.179 643.68 268.53 641.703 282.336 641.139C286.704 640.997 287.831 645.515 295.016 645.797C295.439 645.797 296.002 645.938 296.284 646.221C298.257 648.197 301.074 647.915 303.751 647.774C313.754 647.35 317.135 648.056 321.785 646.785C327.42 645.091 330.66 646.644 333.337 646.362C344.89 645.091 353.625 650.597 357.429 649.185C361.655 647.632 365.741 649.044 369.827 648.479C379.407 652.291 406.739 644.103 414.347 645.091C443.37 648.479 438.861 643.256 449.991 643.821C455.768 644.103 463.939 645.797 467.884 645.374C470.702 645.091 475.492 646.362 475.492 646.362L494.652 646.644C498.315 646.644 497.047 648.621 501.697 648.056C512.545 646.785 515.785 650.032 521.843 648.762C523.252 648.338 524.802 648.197 526.352 649.044C527.901 649.75 531.987 648.903 533.537 649.468C537.059 651.02 540.299 649.044 545.371 649.044C569.463 648.621 558.755 650.032 568.899 651.303C592.709 654.55 654.136 649.185 660.194 649.891C661.603 650.032 674.001 652.009 676.114 652.15C679.495 652.291 688.794 652.291 689.921 652.573C700.065 654.55 706.968 649.468 716.407 651.444C719.084 652.009 722.043 650.879 724.861 651.303C725.424 651.444 736.272 655.538 736.272 654.126C744.867 653.138 738.527 649.75 748.53 649.326C753.038 649.044 750.925 646.08 754.588 645.938C762.9 645.374 759.66 643.68 767.408 644.668C775.298 645.797 776.143 641.986 787.978 646.503C807.279 634.927 811.647 643.539 819.818 635.633C821.931 633.657 825.172 634.504 827.285 633.233C829.117 632.104 836.865 629.422 839.965 629.563C841.092 626.316 840.106 626.881 849.122 626.598C869.551 625.751 852.504 622.222 886.316 622.646C894.206 622.646 895.192 625.469 898.292 622.928C909.563 613.187 916.043 621.658 932.95 613.752C937.176 611.776 939.853 612.905 941.967 610.364C942.953 609.094 948.588 609.799 951.547 611.352C958.309 615.023 961.972 606.694 981.978 621.516C985.782 624.34 988.882 619.54 997.335 621.94C1006.07 624.481 1003.53 625.469 1006.35 626.74C1007.76 627.445 1012.97 630.128 1016.5 630.269C1023.54 630.551 1030.3 633.939 1035.37 633.374C1043.4 632.527 1043.26 635.21 1047.49 633.939C1049.32 633.374 1051.44 632.951 1052.99 634.08C1054.68 635.351 1057.07 635.351 1058.34 637.468C1058.62 637.751 1069.19 638.033 1069.75 638.033C1114.27 640.15 1094.12 633.657 1133.29 637.045C1135.54 637.186 1139.77 635.351 1142.31 637.892C1147.1 642.833 1170.63 640.009 1171.89 639.586C1174.29 639.021 1176.4 639.021 1178.09 640.998C1182.74 637.892 1186.12 642.833 1191.34 638.315C1193.87 636.198 1199.23 637.892 1200.63 638.456C1214.16 643.821 1200.77 641.421 1220.22 642.974C1220.22 642.974 1224.02 644.95 1225.99 645.374C1230.36 646.221 1236.7 647.491 1239.66 645.233C1240.93 644.244 1246.14 643.68 1248.82 639.868C1249.8 638.174 1253.18 638.88 1254.59 638.88C1273.47 639.162 1280.09 632.386 1284.32 632.104C1289.96 631.539 1292.91 631.398 1293.62 630.692C1296.86 626.881 1300.52 631.116 1308.41 631.822C1312.36 632.245 1319.68 632.527 1319.68 632.527C1324.76 633.657 1325.46 629.563 1331.24 631.257C1332.64 631.68 1333.21 631.257 1342.65 630.833C1343.49 630.692 1346.73 631.68 1347.72 631.822C1350.82 632.245 1354.06 632.104 1356.6 634.504C1358.43 636.198 1371.39 632.951 1373.5 631.963C1380.55 628.716 1384.91 631.68 1389.56 628.857C1394.49 625.893 1394.49 628.292 1397.88 625.893C1405.91 620.105 1411.68 623.069 1426.47 618.552C1431.83 616.999 1436.34 616.576 1440 616.717V414C1438.87 414.282 1437.04 414.847 1434.22 415.976Z" fill="#232323"/>
</svg>
