<svg width="1440" height="907" viewBox="0 0 1440 907" fill="none" xmlns="http://www.w3.org/2000/svg">
<rect y="190" width="1440" height="579" fill="#FFF3ED"/>
<path d="M1434.22 1.97635C1430.98 3.10569 1426.76 4.3762 1424.5 2.82335C1420.28 -0.282335 1419.29 4.94086 1416.89 5.2232C1409.99 6.21137 1413.94 14.5403 1403.37 18.0695C1403.09 18.2106 1402.67 18.493 1402.52 18.7753C1397.31 40.9386 1361.24 17.7871 1355.61 24.7043C1354.9 25.4102 1351.95 24.5632 1346.31 23.7162C1346.31 37.4094 1331.8 30.351 1325.6 28.2335C1324.47 27.9512 1321.51 28.7982 1319.82 28.7982C1309.26 28.5159 1306.3 31.198 1302.64 26.5395C1298.69 21.4575 1295.03 25.4102 1292.07 23.0103C1287 18.7753 1285.31 20.4693 1283.33 25.4102C1281.36 30.7745 1279.11 27.6688 1274.46 30.6334C1268.96 34.1626 1263.47 29.3629 1260.79 27.6688C1240.5 41.0798 1231.35 33.8802 1227.26 35.1507C1226.28 40.0916 1221.63 43.9031 1216.7 43.9031C1216.7 43.9031 1206.13 44.0443 1205.71 43.9031C1199.51 42.2091 1201.34 44.8913 1199.08 45.0325C1195.28 45.3148 1197.25 47.5735 1193.59 48.5617C1183.45 51.2438 1181.33 46.0206 1177.25 46.303C1173.02 46.5853 1168.93 45.1736 1164.85 46.7265C1163.72 47.2911 1148.51 48.7028 1139.77 47.7147C1138.93 49.2675 1137.94 50.6792 1136.11 50.8203C1131.46 51.1027 1126.81 50.9615 1122.3 49.5498C1118.5 48.4205 1120.89 50.9615 1113.99 50.538C1110.47 50.2557 1109.76 51.5262 1104.27 52.7967C1098.21 54.2084 1099.76 58.4434 1095.67 58.3022C1087.08 58.0199 1066.37 61.6902 1059.89 56.3259C1055.52 52.9379 1051.86 56.0435 1049.46 52.7967C1047.91 50.8203 1045.1 52.7967 1042.7 51.9497C1038.61 50.538 1039.32 54.773 1032.27 52.7967C1030.16 52.0908 1028.05 50.8203 1025.79 50.538C1023.82 50.1145 1022.69 49.1263 1021.29 48.1381C1015.51 44.1855 1004.24 45.0325 1001.98 40.0916C993.954 40.3739 1002.13 42.7738 989.445 42.068C970.144 41.0798 969.44 49.2675 964.086 50.1145C963.663 50.1145 962.818 49.691 962.536 49.9733C960.986 50.9615 959.718 50.1145 958.309 49.5498C953.66 47.4323 953.378 52.232 946.193 47.997C944.784 47.0088 938.585 45.0325 937.317 46.1618C935.909 47.5735 935.063 46.8676 927.878 44.1855C926.046 47.15 918.016 47.5735 917.03 43.0561C911.817 43.3385 909.985 45.8795 906.322 42.915C905.618 42.3503 903.364 42.7738 902.659 42.3503C899.982 40.9386 893.643 42.0679 893.22 42.6326C891.529 44.609 889.839 43.762 884.908 43.3385C883.217 49.8322 875.891 41.7856 872.651 43.3385C872.228 43.6208 871.523 43.1973 870.96 43.0561C864.62 40.6563 864.056 46.4441 861.239 46.8676C859.689 47.15 858.28 47.8558 856.589 47.15C854.899 46.4441 853.631 48.4205 851.94 48.4205C848.418 48.4205 846.586 48.5617 845.178 47.4323C845.178 47.4323 843.064 47.2911 841.937 46.4441C840.81 45.5971 839.965 44.4678 839.12 43.4796L838.979 43.762C831.23 40.5151 836.02 41.6444 826.722 46.5853C818.832 50.8203 822.213 46.8676 811.788 51.2438C806.997 53.3614 807.42 50.6792 804.18 52.232C801.221 53.5025 799.671 52.7967 794.318 50.538C790.936 49.1263 786.851 58.3022 780.37 58.161C773.889 58.0199 781.497 62.9608 763.182 58.0199C759.66 57.0317 757.546 61.9726 753.461 57.0317C750.22 53.2202 748.952 58.0199 744.444 55.1965C744.021 54.9142 743.176 54.9142 742.612 55.0554C740.076 55.4789 732.328 58.1611 728.946 57.314C720.916 55.3377 713.167 53.3614 712.463 53.079C710.913 52.6555 707.532 53.079 705.982 52.3732C702.601 50.9615 702.741 53.3614 690.907 54.4907C686.539 54.9142 682.454 55.4789 678.509 57.0317C675.269 58.3022 672.451 60.2786 668.647 60.2786C668.647 60.2786 666.534 61.9726 662.307 62.3961C632.58 65.5018 646.105 61.1256 621.45 64.0901C612.151 65.0783 605.389 67.337 601.726 66.2076C599.331 65.3606 598.767 65.7841 588.483 66.2076C585.665 66.3488 571.999 63.9489 562.278 65.6429C557.769 66.3488 549.034 66.0664 548.612 66.0664C541.99 67.337 542.131 65.6429 540.299 65.6429C519.73 64.9371 532.128 62.2549 518.603 63.6666C514.658 64.0901 514.658 62.2549 509.445 61.8314C499.583 60.8432 498.597 60.8432 495.638 62.6784C494.511 63.5254 489.721 67.0546 485.635 67.1958C476.619 67.7604 475.773 67.3369 474.787 66.3488C473.097 64.3724 471.124 65.3606 469.293 65.0783C447.596 62.1137 450.555 66.4899 416.178 57.0317C410.402 60.1374 408.711 57.8787 397.863 56.1847C380.393 53.3614 402.794 54.0672 372.504 53.5025C367.009 53.3614 368.7 54.4907 360.106 53.2202C344.749 50.8203 342.495 53.926 338.691 54.773C335.732 55.4789 332.633 56.0435 329.956 57.5964C329.533 57.8787 328.547 58.1611 327.843 58.0199C322.63 56.6082 300.792 64.2313 290.085 62.1137C289.381 61.9726 288.254 61.9726 287.69 62.2549C285.295 63.3843 281.068 62.6784 279.8 62.9608C274.588 64.6548 271.488 62.1137 267.825 62.3961C267.402 62.5372 254.159 64.0901 252.891 64.3724C247.397 65.7841 244.297 64.5136 240.775 65.3606C227.391 68.8898 240.634 61.1256 220.065 70.4426C219.36 73.1248 217.529 74.113 214.429 72.9837C210.625 71.572 208.512 75.3835 203.017 74.2542C203.017 74.2542 197.382 75.5247 194.001 75.2423C189.633 74.8188 185.97 76.5128 183.293 76.0893C178.503 75.3835 176.672 77.3598 173.995 75.6658C170.191 73.5483 157.652 75.807 156.243 75.9482C150.326 76.3717 149.34 79.7597 147.085 80.4655C143.986 81.3125 138.35 82.5831 135.251 81.5949C127.361 79.0539 124.966 80.7479 120.599 81.1714C85.6589 84.1359 94.1121 87.5239 79.3191 85.8299C77.0649 85.5476 74.6698 85.9711 72.5565 84.9829C72.5565 84.9829 72.2747 84.9829 72.1339 84.9829C68.8935 85.8299 67.4846 83.5712 63.6807 84.2771C63.1171 84.4182 62.2718 84.2771 61.5674 84.1359C58.0452 83.4301 54.6639 82.4419 51.0009 83.0066C46.0699 83.5712 45.0837 83.5712 43.9566 84.8417C39.73 89.0768 36.7714 85.6887 30.5724 90.2061C25.9231 93.5941 9.72117 98.2527 3.66305 96.841C3.38128 96.6998 2.95862 96.6998 2.67684 96.6998C1.69064 96.841 0.845318 97.1233 0 97.2645V252.831C5.63546 253.537 67.2028 251.984 95.9436 249.02C100.452 248.455 98.9023 250.149 103.833 250.714C110.878 251.702 151.03 244.926 156.102 246.479C162.583 248.455 175.122 248.031 182.589 244.926C185.829 243.655 186.252 245.208 188.224 244.643C191.887 243.796 194.846 241.255 199.072 242.102L199.354 241.961C202.172 240.55 224.996 239.844 231.617 235.326C233.167 234.197 253.032 231.797 255.145 231.656C273.179 229.68 268.53 227.703 282.336 227.139C286.704 226.997 287.831 231.515 295.016 231.797C295.439 231.797 296.002 231.938 296.284 232.221C298.257 234.197 301.074 233.915 303.751 233.774C313.754 233.35 317.135 234.056 321.785 232.785C327.42 231.091 330.66 232.644 333.337 232.362C344.89 231.091 353.625 236.597 357.429 235.185C361.655 233.632 365.741 235.044 369.827 234.479C379.407 238.291 406.739 230.103 414.347 231.091C443.37 234.479 438.861 229.256 449.991 229.821C455.768 230.103 463.939 231.797 467.884 231.374C470.702 231.091 475.492 232.362 475.492 232.362L494.652 232.644C498.315 232.644 497.047 234.621 501.697 234.056C512.545 232.785 515.785 236.032 521.843 234.762C523.252 234.338 524.802 234.197 526.352 235.044C527.901 235.75 531.987 234.903 533.537 235.468C537.059 237.02 540.299 235.044 545.371 235.044C569.463 234.621 558.755 236.032 568.899 237.303C592.709 240.55 654.136 235.185 660.194 235.891C661.603 236.032 674.001 238.009 676.114 238.15C679.495 238.291 688.794 238.291 689.921 238.573C700.065 240.55 706.968 235.468 716.407 237.444C719.084 238.009 722.043 236.879 724.861 237.303C725.424 237.444 736.272 241.538 736.272 240.126C744.867 239.138 738.527 235.75 748.53 235.326C753.038 235.044 750.925 232.08 754.588 231.938C762.9 231.374 759.66 229.68 767.408 230.668C775.298 231.797 776.143 227.986 787.978 232.503C807.279 220.927 811.647 229.539 819.818 221.633C821.931 219.657 825.172 220.504 827.285 219.233C829.117 218.104 836.865 215.422 839.965 215.563C841.092 212.316 840.106 212.881 849.122 212.598C869.551 211.751 852.504 208.222 886.316 208.646C894.206 208.646 895.192 211.469 898.292 208.928C909.563 199.187 916.043 207.658 932.95 199.752C937.176 197.776 939.853 198.905 941.967 196.364C942.953 195.094 948.588 195.799 951.547 197.352C958.309 201.023 961.972 192.694 981.978 207.516C985.782 210.34 988.882 205.54 997.335 207.94C1006.07 210.481 1003.53 211.469 1006.35 212.74C1007.76 213.445 1012.97 216.128 1016.5 216.269C1023.54 216.551 1030.3 219.939 1035.37 219.374C1043.4 218.527 1043.26 221.21 1047.49 219.939C1049.32 219.374 1051.44 218.951 1052.99 220.08C1054.68 221.351 1057.07 221.351 1058.34 223.468C1058.62 223.751 1069.19 224.033 1069.75 224.033C1114.27 226.15 1094.12 219.657 1133.29 223.045C1135.54 223.186 1139.77 221.351 1142.31 223.892C1147.1 228.833 1170.63 226.009 1171.89 225.586C1174.29 225.021 1176.4 225.021 1178.09 226.998C1182.74 223.892 1186.12 228.833 1191.34 224.315C1193.87 222.198 1199.23 223.892 1200.63 224.456C1214.16 229.821 1200.77 227.421 1220.22 228.974C1220.22 228.974 1224.02 230.95 1225.99 231.374C1230.36 232.221 1236.7 233.491 1239.66 231.233C1240.93 230.244 1246.14 229.68 1248.82 225.868C1249.8 224.174 1253.18 224.88 1254.59 224.88C1273.47 225.162 1280.09 218.386 1284.32 218.104C1289.96 217.539 1292.91 217.398 1293.62 216.692C1296.86 212.881 1300.52 217.116 1308.41 217.822C1312.36 218.245 1319.68 218.527 1319.68 218.527C1324.76 219.657 1325.46 215.563 1331.24 217.257C1332.64 217.68 1333.21 217.257 1342.65 216.833C1343.49 216.692 1346.73 217.68 1347.72 217.822C1350.82 218.245 1354.06 218.104 1356.6 220.504C1358.43 222.198 1371.39 218.951 1373.5 217.963C1380.55 214.716 1384.91 217.68 1389.56 214.857C1394.49 211.893 1394.49 214.292 1397.88 211.893C1405.91 206.105 1411.68 209.069 1426.47 204.552C1431.83 202.999 1436.34 202.576 1440 202.717V0C1438.87 0.282335 1437.04 0.847008 1434.22 1.97635Z" fill="#FFF3ED"/>
<path d="M1434.22 655.976C1430.98 657.106 1426.76 658.376 1424.5 656.823C1420.28 653.718 1419.29 658.941 1416.89 659.223C1409.99 660.211 1413.94 668.54 1403.37 672.069C1403.09 672.211 1402.67 672.493 1402.52 672.775C1397.31 694.939 1361.24 671.787 1355.61 678.704C1354.9 679.41 1351.95 678.563 1346.31 677.716C1346.31 691.409 1331.8 684.351 1325.6 682.234C1324.47 681.951 1321.51 682.798 1319.82 682.798C1309.26 682.516 1306.3 685.198 1302.64 680.54C1298.69 675.457 1295.03 679.41 1292.07 677.01C1287 672.775 1285.31 674.469 1283.33 679.41C1281.36 684.775 1279.11 681.669 1274.46 684.633C1268.96 688.163 1263.47 683.363 1260.79 681.669C1240.5 695.08 1231.35 687.88 1227.26 689.151C1226.28 694.092 1221.63 697.903 1216.7 697.903C1216.7 697.903 1206.13 698.044 1205.71 697.903C1199.51 696.209 1201.34 698.891 1199.08 699.032C1195.28 699.315 1197.25 701.573 1193.59 702.562C1183.45 705.244 1181.33 700.021 1177.25 700.303C1173.02 700.585 1168.93 699.174 1164.85 700.726C1163.72 701.291 1148.51 702.703 1139.77 701.715C1138.93 703.267 1137.94 704.679 1136.11 704.82C1131.46 705.103 1126.81 704.962 1122.3 703.55C1118.5 702.42 1120.89 704.962 1113.99 704.538C1110.47 704.256 1109.76 705.526 1104.27 706.797C1098.21 708.208 1099.76 712.443 1095.67 712.302C1087.08 712.02 1066.37 715.69 1059.89 710.326C1055.52 706.938 1051.86 710.044 1049.46 706.797C1047.91 704.82 1045.1 706.797 1042.7 705.95C1038.61 704.538 1039.32 708.773 1032.27 706.797C1030.16 706.091 1028.05 704.82 1025.79 704.538C1023.82 704.115 1022.69 703.126 1021.29 702.138C1015.51 698.185 1004.24 699.032 1001.98 694.092C993.954 694.374 1002.13 696.774 989.445 696.068C970.144 695.08 969.44 703.267 964.086 704.114C963.663 704.114 962.818 703.691 962.536 703.973C960.986 704.962 959.718 704.114 958.309 703.55C953.66 701.432 953.378 706.232 946.193 701.997C944.784 701.009 938.585 699.032 937.317 700.162C935.909 701.573 935.063 700.868 927.878 698.185C926.046 701.15 918.016 701.573 917.03 697.056C911.817 697.338 909.985 699.879 906.322 696.915C905.618 696.35 903.364 696.774 902.659 696.35C899.982 694.939 893.643 696.068 893.22 696.633C891.529 698.609 889.839 697.762 884.908 697.338C883.217 703.832 875.891 695.786 872.651 697.338C872.228 697.621 871.523 697.197 870.96 697.056C864.62 694.656 864.056 700.444 861.239 700.868C859.689 701.15 858.28 701.856 856.589 701.15C854.899 700.444 853.631 702.42 851.94 702.42C848.418 702.42 846.586 702.562 845.178 701.432C845.178 701.432 843.064 701.291 841.937 700.444C840.81 699.597 839.965 698.468 839.12 697.48L838.979 697.762C831.23 694.515 836.02 695.644 826.722 700.585C818.832 704.82 822.213 700.868 811.788 705.244C806.997 707.361 807.42 704.679 804.18 706.232C801.221 707.503 799.671 706.797 794.318 704.538C790.936 703.126 786.851 712.302 780.37 712.161C773.889 712.02 781.497 716.961 763.182 712.02C759.66 711.032 757.546 715.973 753.461 711.032C750.22 707.22 748.952 712.02 744.444 709.197C744.021 708.914 743.176 708.914 742.612 709.055C740.076 709.479 732.328 712.161 728.946 711.314C720.916 709.338 713.167 707.361 712.463 707.079C710.913 706.656 707.532 707.079 705.982 706.373C702.601 704.962 702.741 707.361 690.907 708.491C686.539 708.914 682.454 709.479 678.509 711.032C675.269 712.302 672.451 714.279 668.647 714.279C668.647 714.279 666.534 715.973 662.307 716.396C632.58 719.502 646.105 715.126 621.45 718.09C612.151 719.078 605.389 721.337 601.726 720.208C599.331 719.361 598.767 719.784 588.483 720.208C585.665 720.349 571.999 717.949 562.278 719.643C557.769 720.349 549.034 720.066 548.612 720.066C541.99 721.337 542.131 719.643 540.299 719.643C519.73 718.937 532.128 716.255 518.603 717.667C514.658 718.09 514.658 716.255 509.445 715.831C499.583 714.843 498.597 714.843 495.638 716.678C494.511 717.525 489.721 721.055 485.635 721.196C476.619 721.76 475.773 721.337 474.787 720.349C473.097 718.372 471.124 719.361 469.293 719.078C447.596 716.114 450.555 720.49 416.178 711.032C410.402 714.137 408.711 711.879 397.863 710.185C380.393 707.361 402.794 708.067 372.504 707.503C367.009 707.361 368.7 708.491 360.106 707.22C344.749 704.82 342.495 707.926 338.691 708.773C335.732 709.479 332.633 710.044 329.956 711.596C329.533 711.879 328.547 712.161 327.843 712.02C322.63 710.608 300.792 718.231 290.085 716.114C289.381 715.973 288.254 715.973 287.69 716.255C285.295 717.384 281.068 716.678 279.8 716.961C274.588 718.655 271.488 716.114 267.825 716.396C267.402 716.537 254.159 718.09 252.891 718.372C247.397 719.784 244.297 718.514 240.775 719.361C227.391 722.89 240.634 715.126 220.065 724.443C219.36 727.125 217.529 728.113 214.429 726.984C210.625 725.572 208.512 729.383 203.017 728.254C203.017 728.254 197.382 729.525 194.001 729.242C189.633 728.819 185.97 730.513 183.293 730.089C178.503 729.384 176.672 731.36 173.995 729.666C170.191 727.548 157.652 729.807 156.243 729.948C150.326 730.372 149.34 733.76 147.085 734.466C143.986 735.313 138.35 736.583 135.251 735.595C127.361 733.054 124.966 734.748 120.599 735.171C85.6589 738.136 94.1121 741.524 79.3191 739.83C77.0649 739.548 74.6698 739.971 72.5565 738.983C72.5565 738.983 72.2747 738.983 72.1339 738.983C68.8935 739.83 67.4846 737.571 63.6807 738.277C63.1171 738.418 62.2718 738.277 61.5674 738.136C58.0452 737.43 54.6639 736.442 51.0009 737.007C46.0699 737.571 45.0837 737.571 43.9566 738.842C39.73 743.077 36.7714 739.689 30.5724 744.206C25.9231 747.594 9.72117 752.253 3.66305 750.841C3.38128 750.7 2.95862 750.7 2.67684 750.7C1.69064 750.841 0.845318 751.123 0 751.264V906.831C5.63546 907.537 67.2028 905.984 95.9436 903.02C100.452 902.455 98.9023 904.149 103.833 904.714C110.878 905.702 151.03 898.926 156.102 900.479C162.583 902.455 175.122 902.031 182.589 898.926C185.829 897.655 186.252 899.208 188.224 898.643C191.887 897.796 194.846 895.255 199.072 896.102L199.354 895.961C202.172 894.55 224.996 893.844 231.617 889.326C233.167 888.197 253.032 885.797 255.145 885.656C273.179 883.68 268.53 881.703 282.336 881.139C286.704 880.997 287.831 885.515 295.016 885.797C295.439 885.797 296.002 885.938 296.284 886.221C298.257 888.197 301.074 887.915 303.751 887.774C313.754 887.35 317.135 888.056 321.785 886.785C327.42 885.091 330.66 886.644 333.337 886.362C344.89 885.091 353.625 890.597 357.429 889.185C361.655 887.632 365.741 889.044 369.827 888.479C379.407 892.291 406.739 884.103 414.347 885.091C443.37 888.479 438.861 883.256 449.991 883.821C455.768 884.103 463.939 885.797 467.884 885.374C470.702 885.091 475.492 886.362 475.492 886.362L494.652 886.644C498.315 886.644 497.047 888.621 501.697 888.056C512.545 886.785 515.785 890.032 521.843 888.762C523.252 888.338 524.802 888.197 526.352 889.044C527.901 889.75 531.987 888.903 533.537 889.468C537.059 891.02 540.299 889.044 545.371 889.044C569.463 888.621 558.755 890.032 568.899 891.303C592.709 894.55 654.136 889.185 660.194 889.891C661.603 890.032 674.001 892.009 676.114 892.15C679.495 892.291 688.794 892.291 689.921 892.573C700.065 894.55 706.968 889.468 716.407 891.444C719.084 892.009 722.043 890.879 724.861 891.303C725.424 891.444 736.272 895.538 736.272 894.126C744.867 893.138 738.527 889.75 748.53 889.326C753.038 889.044 750.925 886.08 754.588 885.938C762.9 885.374 759.66 883.68 767.408 884.668C775.298 885.797 776.143 881.986 787.978 886.503C807.279 874.927 811.647 883.539 819.818 875.633C821.931 873.657 825.172 874.504 827.285 873.233C829.117 872.104 836.865 869.422 839.965 869.563C841.092 866.316 840.106 866.881 849.122 866.598C869.551 865.751 852.504 862.222 886.316 862.646C894.206 862.646 895.192 865.469 898.292 862.928C909.563 853.187 916.043 861.658 932.95 853.752C937.176 851.776 939.853 852.905 941.967 850.364C942.953 849.094 948.588 849.799 951.547 851.352C958.309 855.023 961.972 846.694 981.978 861.516C985.782 864.34 988.882 859.54 997.335 861.94C1006.07 864.481 1003.53 865.469 1006.35 866.74C1007.76 867.445 1012.97 870.128 1016.5 870.269C1023.54 870.551 1030.3 873.939 1035.37 873.374C1043.4 872.527 1043.26 875.21 1047.49 873.939C1049.32 873.374 1051.44 872.951 1052.99 874.08C1054.68 875.351 1057.07 875.351 1058.34 877.468C1058.62 877.751 1069.19 878.033 1069.75 878.033C1114.27 880.15 1094.12 873.657 1133.29 877.045C1135.54 877.186 1139.77 875.351 1142.31 877.892C1147.1 882.833 1170.63 880.009 1171.89 879.586C1174.29 879.021 1176.4 879.021 1178.09 880.998C1182.74 877.892 1186.12 882.833 1191.34 878.315C1193.87 876.198 1199.23 877.892 1200.63 878.456C1214.16 883.821 1200.77 881.421 1220.22 882.974C1220.22 882.974 1224.02 884.95 1225.99 885.374C1230.36 886.221 1236.7 887.491 1239.66 885.233C1240.93 884.244 1246.14 883.68 1248.82 879.868C1249.8 878.174 1253.18 878.88 1254.59 878.88C1273.47 879.162 1280.09 872.386 1284.32 872.104C1289.96 871.539 1292.91 871.398 1293.62 870.692C1296.86 866.881 1300.52 871.116 1308.41 871.822C1312.36 872.245 1319.68 872.527 1319.68 872.527C1324.76 873.657 1325.46 869.563 1331.24 871.257C1332.64 871.68 1333.21 871.257 1342.65 870.833C1343.49 870.692 1346.73 871.68 1347.72 871.822C1350.82 872.245 1354.06 872.104 1356.6 874.504C1358.43 876.198 1371.39 872.951 1373.5 871.963C1380.55 868.716 1384.91 871.68 1389.56 868.857C1394.49 865.893 1394.49 868.292 1397.88 865.893C1405.91 860.105 1411.68 863.069 1426.47 858.552C1431.83 856.999 1436.34 856.576 1440 856.717V654C1438.87 654.282 1437.04 654.847 1434.22 655.976Z" fill="#FFF3ED"/>
</svg>
