<!DOCTYPE svg PUBLIC "-//W3C//DTD SVG 1.1//EN" "http://www.w3.org/Graphics/SVG/1.1/DTD/svg11.dtd">
<!-- Uploaded to: SVG Repo, www.svgrepo.com, Transformed by: SVG Repo Mixer Tools -->
<svg width="256px" height="256px" viewBox="-2.4 -2.4 28.80 28.80" fill="none" xmlns="http://www.w3.org/2000/svg" transform="matrix(1, 0, 0, 1, 0, 0)rotate(0)">
<g id="SVGRepo_bgCarrier" stroke-width="0" transform="translate(0,0), scale(1)">
<path transform="translate(-2.4, -2.4), scale(0.8999999999999999)" d="M16,30.06490940786898C17.88691256711251,30.89948903543671,20.319640348317392,29.305338141996256,21.646708864090392,27.725511776498372C23.003438452712402,26.110374992315347,21.80549534584759,23.32668916829554,23.07512944542498,21.64222745562474C24.29210479541655,20.02762968843553,27.13040073333119,20.426889597802756,28.358519169172244,18.820751353489143C29.61765944728793,17.174042618714463,30.18474045558368,14.887265153453342,29.797382791104,12.85083741426756C29.409318068101136,10.810692506888465,27.616704052840316,9.390533123312132,26.26488321048395,7.814028799653276C24.949095870283767,6.27954703561613,23.949905595185903,3.816876401295629,21.933205849594913,3.6795711030480156C19.624170389677236,3.522362374688006,18.131591589361264,6.213667105835721,16,7.115152899175882C14.758451882812881,7.640224397383376,13.382074758146498,7.520630071845415,12.074647117201316,7.848920749771628C10.517281245002756,8.239970075907642,8.748458428659902,8.200840080997965,7.5267012032224425,9.242769693520604C6.283597114587403,10.30290417394739,6.251718666541383,12.201069593990841,5.363482794992434,13.572284357718464C4.012389979821961,15.658034860113,-0.07566456255317355,17.164964173809565,0.9199679366096802,19.441918912063066C2.040252245826249,22.0039452302141,6.273791493273502,20.703064713635715,8.900636608556201,21.661553382682364C10.152791170085376,22.11844212429042,11.476197768047898,22.589377131832943,12.336389176214697,23.607566264304182C13.953742924139899,25.52199134907525,13.708017391858474,29.051167687752276,16,30.06490940786898" fill="#ff7c37" strokewidth="0"/>
</g>
<g id="SVGRepo_tracerCarrier" stroke-linecap="round" stroke-linejoin="round" stroke="#CCCCCC" stroke-width="0.43200000000000005"/>
<g id="SVGRepo_iconCarrier"> <path d="M20.0164 16.2572C19.5294 18.5297 19.2859 19.666 18.4608 20.333C17.6357 21 16.4737 21 14.1495 21H9.85053C7.52639 21 6.36432 21 5.53925 20.333C4.71418 19.666 4.47069 18.5297 3.98372 16.2572L3.55514 14.2572C2.83668 10.9043 2.47745 9.22793 3.378 8.11397C4.27855 7 5.99302 7 9.42196 7H14.5781C18.0071 7 19.7215 7 20.6221 8.11397C21.2929 8.94376 21.2647 10.0856 20.9097 12" stroke="#1C274C" stroke-width="1.6799999999999997" stroke-linecap="round"/> <path d="M16 12H12M9 12H8" stroke="#1C274C" stroke-width="1.6799999999999997" stroke-linecap="round" stroke-linejoin="round"/> <path d="M10 15H14" stroke="#1C274C" stroke-width="1.6799999999999997" stroke-linecap="round" stroke-linejoin="round"/> <path d="M18 9L15 3" stroke="#1C274C" stroke-width="1.6799999999999997" stroke-linecap="round" stroke-linejoin="round"/> <path d="M6 9L9 3" stroke="#1C274C" stroke-width="1.6799999999999997" stroke-linecap="round" stroke-linejoin="round"/> </g>
</svg>