<svg width="80" height="80" viewBox="0 0 80 80" fill="none" xmlns="http://www.w3.org/2000/svg">
<path d="M62.4297 77.4607C60.3047 77.4607 58.1641 76.6482 56.5391 75.0232L56.5234 75.0076L42.4609 60.7107C41.0703 59.3045 40.3047 57.4295 40.3047 55.4607V54.6013C40.3047 53.9451 40.0391 53.3045 39.5859 52.8513L37.8047 51.1795C37.1797 50.6013 36.3047 50.3826 35.4766 50.6013C32.0234 51.5076 28.3203 50.492 25.8047 47.9763L12.4609 34.6326C6.96095 29.1482 3.57032 21.7107 3.58595 15.242C3.60157 11.3201 4.85157 8.02321 7.21095 5.67946C8.19532 4.71071 9.75782 4.7107 10.7422 5.69508L68.3047 63.2576C71.5547 66.5076 71.5547 71.7888 68.3047 75.0232C66.6797 76.6482 64.5547 77.4607 62.4297 77.4607ZM60.0859 71.492C61.3828 72.7732 63.4922 72.7732 64.7891 71.492C66.0859 70.1951 66.0859 68.0857 64.7891 66.7888L9.32032 11.3357C8.7422 12.6795 8.58595 14.117 8.58595 15.2576C8.57032 20.367 11.4766 26.5857 15.9922 31.0857L29.3359 44.4295C30.6016 45.6951 32.4766 46.2107 34.2109 45.7576C36.6953 45.1013 39.3047 45.7576 41.1953 47.5076L43.0078 49.1795C43.0234 49.1951 43.0547 49.2107 43.0703 49.242C44.4922 50.6482 45.3047 52.5857 45.3047 54.5857V55.4451C45.3047 56.1013 45.5547 56.7263 46.0234 57.1951L60.0859 71.492Z" fill="#FF7C32"/>
<path d="M44.9922 32.4919C44.3515 32.4919 43.7109 32.2419 43.2265 31.7576C42.2578 30.7888 42.2578 29.1951 43.2265 28.2263L44.9922 26.4607V24.1326C44.9922 20.7888 46.289 17.6482 48.6484 15.2888L60.7109 3.22632C61.6797 2.25757 63.2734 2.25757 64.2422 3.22632C65.2109 4.19507 65.2109 5.78882 64.2422 6.75757L52.1797 18.8201C50.7578 20.2419 49.9765 22.1169 49.9765 24.1169V26.4451C49.9765 27.7888 49.4609 29.0388 48.5078 29.9763L46.7422 31.7419C46.2734 32.2419 45.6328 32.4919 44.9922 32.4919Z" fill="#FF7C32"/>
<path d="M49.9922 37.4919C49.3515 37.4919 48.7109 37.2419 48.2265 36.7576C47.2578 35.7888 47.2578 34.1951 48.2265 33.2263L49.9922 31.4607C50.9297 30.5232 52.1953 29.9919 53.5234 29.9919H55.8515C57.8515 29.9919 59.7422 29.2107 61.1484 27.7888L73.2265 15.7107C74.1953 14.7419 75.789 14.7419 76.7578 15.7107C77.7265 16.6794 77.7265 18.2732 76.7578 19.2419L64.6953 31.3044C62.3359 33.6951 59.1953 34.9919 55.8515 34.9919H53.5234L51.7578 36.7576C51.2734 37.2419 50.6328 37.4919 49.9922 37.4919Z" fill="#FF7C32"/>
<path d="M56.2422 26.2419C55.6015 26.2419 54.9609 25.9919 54.4765 25.5076C53.5078 24.5388 53.5078 22.9451 54.4765 21.9763L66.9765 9.47632C67.9453 8.50757 69.539 8.50757 70.5078 9.47632C71.4765 10.4451 71.4765 12.0388 70.5078 13.0076L58.0078 25.5076C57.5234 25.9919 56.8828 26.2419 56.2422 26.2419Z" fill="#FF7C32"/>
<path d="M11.2422 77.492C9.00781 77.492 6.75781 76.6326 5.05469 74.9295C1.64844 71.5232 1.64844 65.9607 5.05469 62.5545L18.2266 49.4607C19.2109 48.492 20.7891 48.492 21.7578 49.4763C22.7266 50.4607 22.7266 52.0388 21.7422 53.0076L8.58594 66.1013C7.13281 67.5545 7.13281 69.9295 8.58594 71.3982C10.0547 72.867 12.4297 72.867 13.8828 71.3982L29.4609 55.742C30.4297 54.7576 32.0234 54.7576 32.9922 55.7263C33.9766 56.6951 33.9766 58.2888 33.0078 59.2576L17.4297 74.9295C15.7266 76.6326 13.4766 77.492 11.2422 77.492Z" fill="#FF7C32"/>
</svg>
