<svg width="80" height="80" viewBox="0 0 80 80" fill="none" xmlns="http://www.w3.org/2000/svg">
<path d="M40 45C31.7188 45 25.3282 42.4531 21 37.4375C13.7188 29.0156 15 16.6094 15.2188 14.8281V12.5C15.2188 11.125 16.3438 10 17.7188 10H62.2657C63.6407 10 64.7657 11.125 64.7657 12.5V14.8281C65 16.6094 66.2657 29 59 37.4375C54.6719 42.4531 48.2813 45 40 45ZM20.2188 15C20.2188 15.125 20.2032 15.25 20.1875 15.3594C20.1719 15.4688 18.5938 27.0312 24.7813 34.1875C28.125 38.0469 33.2344 40 39.9844 40C46.7344 40 51.8438 38.0469 55.1875 34.1875C61.4063 27.0469 59.8125 15.4688 59.7969 15.3594C59.7813 15.2344 59.7657 15.125 59.7657 15H20.2188Z" fill="#FF7C32"/>
<path d="M42.5 42.5H37.5V67.5H42.5V42.5Z" fill="#FF7C32"/>
<path d="M55 70H25C23.625 70 22.5 68.875 22.5 67.5C22.5 66.125 23.625 65 25 65H55C56.375 65 57.5 66.125 57.5 67.5C57.5 68.875 56.375 70 55 70Z" fill="#FF7C32"/>
<path d="M62.5 22.5H17.5V27.5H62.5V22.5Z" fill="#FF7C32"/>
</svg>
