<svg width="80" height="80" viewBox="0 0 80 80" fill="none" xmlns="http://www.w3.org/2000/svg">
<path fill-rule="evenodd" clip-rule="evenodd" d="M12.1875 62.5C13.5682 62.5 14.6875 63.6193 14.6875 65C14.6875 67.296 15.359 69.1983 16.4175 70.4777C17.4363 71.7092 18.9157 72.5 20.9375 72.5H41.5625C43.5843 72.5 45.0637 71.7092 46.0825 70.4777C47.141 69.1983 47.8125 67.296 47.8125 65C47.8125 63.6193 48.9318 62.5 50.3125 62.5C51.6932 62.5 52.8125 63.6193 52.8125 65C52.8125 68.2275 51.8707 71.3251 49.935 73.6649C47.9597 76.0525 45.0641 77.5 41.5625 77.5H20.9375C17.4359 77.5 14.5403 76.0525 12.565 73.6649C10.6293 71.3251 9.6875 68.2275 9.6875 65C9.6875 63.6193 10.8068 62.5 12.1875 62.5Z" fill="#FF7C32"/>
<path fill-rule="evenodd" clip-rule="evenodd" d="M10 55C9.11143 55 7.5 56.1298 7.5 58.75C7.5 61.3702 9.11143 62.5 10 62.5H52.5C53.3886 62.5 55 61.3702 55 58.75C55 56.1298 53.3886 55 52.5 55C51.1193 55 50 53.8807 50 52.5C50 51.1193 51.1193 50 52.5 50C57.1333 50 60 54.467 60 58.75C60 63.033 57.1333 67.5 52.5 67.5H10C5.36669 67.5 2.5 63.033 2.5 58.75C2.5 54.467 5.36669 50 10 50C11.3807 50 12.5 51.1193 12.5 52.5C12.5 53.8807 11.3807 55 10 55Z" fill="#FF7C32"/>
<path fill-rule="evenodd" clip-rule="evenodd" d="M8.75 47.5C8.41848 47.5 8.10054 47.6317 7.86612 47.8661C7.63169 48.1005 7.5 48.4185 7.5 48.75C7.5 49.0815 7.63169 49.3995 7.86612 49.6339C8.10054 49.8683 8.41848 50 8.75 50H16.984C17.9772 50.0005 18.9297 50.3949 19.6324 51.0969L22.5 53.9645L25.3676 51.0969C26.0703 50.3949 27.0228 50.0005 28.016 50H53.75C54.0815 50 54.3995 49.8683 54.6339 49.6339C54.8683 49.3995 55 49.0815 55 48.75C55 48.4185 54.8683 48.1005 54.6339 47.8661C54.3995 47.6317 54.0815 47.5 53.75 47.5H8.75ZM4.33058 44.3306C5.50268 43.1585 7.09239 42.5 8.75 42.5H53.75C55.4076 42.5 56.9973 43.1585 58.1694 44.3306C59.3415 45.5027 60 47.0924 60 48.75C60 50.4076 59.3415 51.9973 58.1694 53.1694C56.9973 54.3415 55.4076 55 53.75 55H28.5355L24.7109 58.8246C24.7106 58.8249 24.7103 58.8253 24.71 58.8256C24.4199 59.1157 24.0756 59.3458 23.6967 59.5029C23.3173 59.6602 22.9106 59.7411 22.5 59.7411C22.0894 59.7411 21.6827 59.6602 21.3033 59.5029C20.9244 59.3458 20.5801 59.1157 20.29 58.8256C20.2897 58.8253 20.2894 58.8249 20.2891 58.8246L16.4645 55H8.75C7.09239 55 5.50268 54.3415 4.33058 53.1694C3.15848 51.9973 2.5 50.4076 2.5 48.75C2.5 47.0924 3.15848 45.5027 4.33058 44.3306Z" fill="#FF7C32"/>
<path fill-rule="evenodd" clip-rule="evenodd" d="M16.1228 35.2975C13.9077 37.017 12.5 39.5573 12.5 43.0906V43.125C12.5 44.5057 11.3807 45.625 10 45.625C8.61929 45.625 7.5 44.5057 7.5 43.125V43.0906C7.5 38.0302 9.60789 34.0252 13.0568 31.3478C16.4341 28.7261 20.9252 27.5 25.625 27.5H36.875C41.5789 27.5 46.0707 28.7368 49.4469 31.3679C52.8806 34.0439 54.9847 38.0365 54.9999 43.0701C55 43.0769 55 43.0838 55 43.0906C55 43.1021 55 43.1135 55 43.125H50C50 39.5907 48.5912 37.0401 46.3734 35.3118C44.0856 33.5288 40.7648 32.5 36.875 32.5H25.625C21.7311 32.5 18.4096 33.5223 16.1228 35.2975Z" fill="#FF7C32"/>
<path fill-rule="evenodd" clip-rule="evenodd" d="M37.3674 15.0167C38.7389 14.8572 39.98 15.8397 40.1395 17.2112L41.302 27.2065C41.4615 28.578 40.479 29.8191 39.1076 29.9786C37.7361 30.1381 36.495 29.1556 36.3355 27.7841L35.173 17.7888C35.0135 16.4173 35.996 15.1762 37.3674 15.0167Z" fill="#FF7C32"/>
<path fill-rule="evenodd" clip-rule="evenodd" d="M72.6066 15.0138C73.9797 15.159 74.9751 16.3898 74.8299 17.7628L69.2429 70.6021C69.0922 72.4731 68.2452 74.2202 66.8686 75.4977C65.4816 76.7847 63.6594 77.4999 61.7672 77.5H40C38.6193 77.5 37.5 76.3807 37.5 75C37.5 73.6193 38.6193 72.5 40 72.5H61.7671C62.3978 72.4999 63.0052 72.2615 63.4676 71.8325C63.9299 71.4035 64.213 70.8156 64.2601 70.1867L64.263 70.1486L69.8576 17.2371C70.0028 15.864 71.2336 14.8686 72.6066 15.0138Z" fill="#FF7C32"/>
<path fill-rule="evenodd" clip-rule="evenodd" d="M69.7104 4.19429C70.1553 5.50134 69.4564 6.92162 68.1494 7.36657L62.095 9.42764L59.9253 18.1063C59.5905 19.4458 58.2331 20.2602 56.8936 19.9253C55.5542 19.5904 54.7398 18.2331 55.0746 16.8936L57.5746 6.89361C57.7806 6.06986 58.3905 5.40696 59.1943 5.13332L66.5381 2.63332C67.8451 2.18837 69.2654 2.88724 69.7104 4.19429Z" fill="#FF7C32"/>
<path fill-rule="evenodd" clip-rule="evenodd" d="M32.5 17.5C32.5 16.1193 33.6193 15 35 15H75C76.3807 15 77.5 16.1193 77.5 17.5C77.5 18.8807 76.3807 20 75 20H35C33.6193 20 32.5 18.8807 32.5 17.5Z" fill="#FF7C32"/>
</svg>
