<svg width="80" height="80" viewBox="0 0 80 80" fill="none" xmlns="http://www.w3.org/2000/svg">
<path fill-rule="evenodd" clip-rule="evenodd" d="M15.7842 16.8563C22.8345 13.9448 31.3583 12.5 40 12.5C48.6533 12.5 56.5887 13.8204 64.187 16.916C65.4939 17.448 66.5651 18.3639 67.107 19.6418C67.6459 20.9124 67.5355 22.252 67.0239 23.3585L44.5082 72.1601L44.4991 72.1789C44.0914 73.0251 43.4532 73.739 42.6579 74.2386C41.8625 74.7382 40.9424 75.0033 40.0031 75.0033C39.0639 75.0033 38.1437 74.7382 37.3484 74.2386C36.5535 73.7392 35.9155 73.0258 35.5078 72.1802C32.4742 65.9027 26.9783 53.9926 22.1693 43.5094C19.9767 38.7297 17.9339 34.2622 16.3272 30.7484C14.3918 26.5158 13.0891 23.6668 12.9194 23.3227C12.9193 23.3225 12.9192 23.3223 12.9191 23.3221C12.1789 21.8235 12.1819 20.2098 13.1071 18.8582C13.8648 17.7514 15.0207 17.1686 15.7842 16.8563ZM40 17.5C31.8654 17.5 24.0128 18.8671 17.6889 21.4794L17.6842 21.4813L17.6796 21.4832C17.6504 21.4951 17.6226 21.5068 17.5959 21.5184C18.0843 22.5678 19.3643 25.3668 21.0947 29.1509C22.6778 32.6127 24.6379 36.899 26.7139 41.4246C31.5251 51.9127 36.9939 63.7632 40.0027 69.9903L62.3448 21.5652C62.3312 21.5592 62.3168 21.5531 62.3017 21.547L62.3005 21.5465C55.4019 18.7359 48.1249 17.5 40 17.5Z" fill="#FF7C32"/>
<path fill-rule="evenodd" clip-rule="evenodd" d="M10.8641 10.5043C19.4692 7.05704 29.6568 5 40 5C50.3695 5 60.7027 7.27029 69.1041 10.5941L69.1066 10.595L69.109 10.596C69.7601 10.8552 70.622 11.2951 71.312 11.9802C72.0214 12.6846 72.8966 14.0604 72.3158 15.7941L72.2911 15.8679L70.7182 19.7448L70.6994 19.7865C70.2402 20.8094 69.5092 21.9438 68.1115 22.3832C67.5169 22.5701 66.9822 22.5647 66.6912 22.5551C66.4679 22.5478 66.3752 22.541 66.3077 22.5361C66.2401 22.5312 66.1978 22.5281 66.075 22.5281C65.5663 22.5281 65.1376 22.4109 64.8579 22.3216C64.5994 22.2392 64.315 22.1282 64.0715 22.0332L64.0163 22.0116L64.0035 22.0065C57.3209 19.3149 48.5531 17.5003 40.0019 17.5C31.7841 17.5119 23.6394 19.0439 15.9789 22.0185C15.9661 22.0235 15.9529 22.0287 15.9395 22.034C15.7355 22.1147 15.4618 22.2228 15.2012 22.3076C14.9477 22.39 14.4749 22.5313 13.9297 22.5313C13.903 22.5313 13.8734 22.5314 13.8409 22.5316C13.417 22.5342 12.52 22.5397 11.6536 22.1797C10.5423 21.7178 9.81981 20.8509 9.32964 19.8461L9.29006 19.7649L7.7119 15.8326L7.68543 15.7507C7.08378 13.8909 8.02926 12.4653 8.82232 11.7374C9.55154 11.068 10.4231 10.6847 10.8466 10.5114L10.8553 10.5078L10.8641 10.5043ZM12.81 15.1111L13.7732 17.5111C13.7942 17.5034 13.8174 17.4947 13.843 17.4849C13.9266 17.4531 14.016 17.4178 14.1284 17.3735L14.1557 17.3627L14.162 17.3602C22.4 14.1604 31.1589 12.5126 39.9964 12.5L39.9982 12.5H40C49.1802 12.5 58.5777 14.433 65.8585 17.3633C65.9965 17.4171 66.1019 17.4581 66.1939 17.4927C66.2068 17.4975 66.219 17.5021 66.2305 17.5063L67.1646 15.2039C59.312 12.1117 49.6426 10 40 10C30.325 10 20.8027 11.9228 12.81 15.1111Z" fill="#FF7C32"/>
<path d="M30 35C32.7614 35 35 32.7614 35 30C35 27.2386 32.7614 25 30 25C27.2386 25 25 27.2386 25 30C25 32.7614 27.2386 35 30 35Z" fill="#FF7C32"/>
<path d="M50 37.5C52.7614 37.5 55 35.2614 55 32.5C55 29.7386 52.7614 27.5 50 27.5C47.2386 27.5 45 29.7386 45 32.5C45 35.2614 47.2386 37.5 50 37.5Z" fill="#FF7C32"/>
<path d="M40 55C42.7614 55 45 52.7614 45 50C45 47.2386 42.7614 45 40 45C37.2386 45 35 47.2386 35 50C35 52.7614 37.2386 55 40 55Z" fill="#FF7C32"/>
</svg>
